/vscmnt/brussel_pixiu_data/_data_brussel/112/vsc11236/PredSimResults/SUBJ09mtu3D/weighted-trackIG/worker_05.mot
version=1
nRows=4
nColumns=50
inDegrees=yes
endheader
                time	         pelvis_tilt	         pelvis_list	     pelvis_rotation	           pelvis_tx	           pelvis_ty	           pelvis_tz	       hip_flexion_r	     hip_adduction_r	      hip_rotation_r	        knee_angle_r	       ankle_angle_r	         mtp_angle_r	       hip_flexion_l	     hip_adduction_l	      hip_rotation_l	        knee_angle_l	       ankle_angle_l	         mtp_angle_l	    lumbar_extension	      lumbar_bending	     lumbar_rotation	 ercspn_r/activation	 intobl_r/activation	 extobl_r/activation	    abd_r/activation	    add_r/activation	hamstrings_r/activation	bifemsh_r/activation	glut_max_r/activation	iliopsoas_r/activation	rect_fem_r/activation	  vasti_r/activation	gastroc_r/activation	 soleus_r/activation	tib_ant_r/activation	 ercspn_l/activation	 intobl_l/activation	 extobl_l/activation	    abd_l/activation	    add_l/activation	hamstrings_l/activation	bifemsh_l/activation	glut_max_l/activation	iliopsoas_l/activation	rect_fem_l/activation	  vasti_l/activation	gastroc_l/activation	 soleus_l/activation	tib_ant_l/activation	
          0.00000000	         -7.97104993	         -4.73742453	          8.18649331	          0.00000000	          0.98285879	         -0.01455654	         31.22736715	          1.25849105	         -5.42011552	         -2.14274776	          6.43444311	          0.21648233	         -9.45716157	         -4.79803643	          6.73456702	         -6.41098467	         11.37087208	         26.44319461	          0.07014364	          2.84533775	         -3.40324525	          0.08545943	          0.12994266	          0.03317742	          0.01221256	          0.08428321	          0.11011147	          0.19555144	          0.00999999	          0.10576730	          0.00999999	          0.00999999	          0.01128978	          0.00999999	          0.26647848	          0.03424298	          0.00999999	          0.00999999	          0.06070704	          0.02013558	          0.02502686	          0.14256738	          0.06133344	          0.49616899	          0.00999999	          0.00999999	          0.35656554	          0.29584899	          0.01491468	
          0.01327544	         -8.07993568	         -4.64279769	          8.18924886	          0.01792911	          0.98049136	         -0.01414119	         31.44618663	          1.34584283	         -5.28707706	         -3.97811678	          5.99235384	          0.21453665	         -9.78894623	         -4.73695915	          6.32541452	         -7.57455484	         10.81153690	         28.35283893	          0.37915211	          3.14034756	         -3.48634399	          0.06997660	          0.10640073	          0.02716661	          0.00999999	          0.13719806	          0.09580761	          0.16012305	          0.07509264	          0.08660526	          0.00999999	          0.00999999	          0.02248282	          0.01491468	          0.27869028	          0.07916793	          0.00999999	          0.00999999	          0.04970864	          0.05333161	          0.02049270	          0.11673820	          0.05022155	          0.51124604	          0.00999999	          0.00999999	          0.33183502	          0.27978775	          0.01221256	
          0.02655087	         -8.16787067	         -4.53899887	          8.14003059	          0.03632489	          0.97840065	         -0.01366487	         31.44515419	          1.41283337	         -5.12169094	         -5.66974074	          5.50595707	          0.19996919	         -9.98319807	         -4.64964017	          5.89180044	         -9.07242421	         10.10212230	         30.34772011	          0.71324971	          3.43719491	         -3.53938915	          0.06157565	          0.08712392	          0.02224479	          0.06507461	          0.12496357	          0.08777170	          0.13111328	          0.11627939	          0.07091484	          0.00999999	          0.00999999	          0.01840957	          0.01221256	          0.32982329	          0.07762002	          0.00999999	          0.00999999	          0.04070284	          0.04806558	          0.02367020	          0.09558854	          0.04112283	          0.49972592	          0.00999999	          0.00999999	          0.30389100	          0.26019572	          0.00999999	
          0.03982631	         -8.23795132	         -4.42270259	          8.04044888	          0.05485978	          0.97685452	         -0.01309479	         31.24916723	          1.48489773	         -4.99074689	         -7.02950440	          4.87117948	          0.17496995	         -9.93515717	         -4.52818919	          5.44750522	        -11.03324693	          9.17518206	         32.42857290	          1.03893504	          3.72870160	         -3.55842381	          0.07050018	          0.07133953	          0.01821466	          0.11926483	          0.13896692	          0.07686170	          0.10735927	          0.16447402	          0.05806708	          0.00999999	          0.00999999	          0.01507427	          0.00999999	          0.36267822	          0.10310290	          0.00999999	          0.00999999	          0.03332864	          0.05375463	          0.02165046	          0.07827060	          0.03367253	          0.48009961	          0.00999999	          0.01221256	          0.25436141	          0.21903824	          0.00999999	
